# xmcd
#
# Track frame offsets:
#	150
#	21503
#	40106
#	62014
#	83122
#	112280
#	133256
#
# Disc length: 2101 seconds
#
# Revision: 1
# Processed by: cddbd v1.5.2PL0 Copyright (c) Steve Scherf et al.
# Submitted via: audiograbber 1.83.01
#
DISCID=62083307
DTITLE=Tom Richardson - Pockets EP
DYEAR=2016
DGENRE=Blues
TTITLE0=Water
TTITLE1=Mistakes and Ladders
TTITLE2=Pockets
TTITLE3=Ones and Twos
TTITLE4=Open Doors
TTITLE5=Love Like This
TTITLE6=Song For Jens
EXTD=
EXTT0=
EXTT1=
EXTT2=
EXTT3=
EXTT4=
EXTT5=
EXTT6=
PLAYORDER=
